<svg width="378" height="378" viewBox="0 0 378 378" fill="none" xmlns="http://www.w3.org/2000/svg">
<path d="M189 29.5312C137.128 29.5312 64.9688 127.752 64.9688 224.438C64.9688 257.333 78.0363 288.88 101.297 312.141C124.557 335.401 156.105 348.469 189 348.469C221.895 348.469 253.443 335.401 276.703 312.141C299.964 288.88 313.031 257.333 313.031 224.438C313.031 127.752 240.872 29.5312 189 29.5312ZM189 336.656C159.247 336.625 130.722 324.792 109.684 303.754C88.6456 282.715 76.8125 254.19 76.7812 224.438C76.7812 182.415 91.5469 136.242 117.136 97.778C139.993 63.4922 168.195 41.3438 189 41.3438C209.805 41.3438 238.007 63.4922 260.864 97.778C286.453 136.242 301.219 182.415 301.219 224.438C301.187 254.19 289.354 282.715 268.316 303.754C247.278 324.792 218.753 336.625 189 336.656Z" fill="#292929"/>
</svg>
